<svg xmlns="http://www.w3.org/2000/svg" width="380" height="490" viewBox="0 0 380 490">
  <defs>
    <style>
      .t { font-family: 'Arial Black', Arial, sans-serif; }
      .m { font-family: 'Courier New', monospace; }
      .c { font-family: Arial, sans-serif; }
    </style>
  </defs>
  <!-- Outer wrap -->
  <rect x="-10" y="-10" width="400" height="510" rx="16" fill="#0a0a0a"/>
  <!-- Card -->
  <rect x="0" y="0" width="380" height="490" rx="12" fill="#111" stroke="#00D2BE" stroke-width="1"/>
  <!-- Scanline overlay -->
  <pattern id="s" width="4" height="4" patternUnits="userSpaceOnUse">
    <rect width="4" height="1" fill="rgba(0,210,190,0.018)"/>
  </pattern>
  <rect x="0" y="0" width="380" height="490" rx="12" fill="url(#s)"/>
  <!-- Header -->
  <rect x="0" y="0" width="380" height="38" fill="#00D2BE" rx="12"/>
  <rect x="0" y="20" width="380" height="18" fill="#00D2BE"/>
  <text x="14" y="24" fill="#0a0a0a" font-size="11" font-weight="800" letter-spacing="1" class="t">MERCEDES AMG PETRONAS F1</text>
  <rect x="302" y="7" width="66" height="24" rx="3" fill="#0a0a0a"/>
  <text x="335" y="23" fill="#00D2BE" font-size="10" text-anchor="middle" font-weight="700" class="m">2025</text>
  <!-- Stripe -->
  <rect x="0" y="38" width="380" height="4" fill="#0a0a0a"/>
  <!-- Body bg -->
  <rect x="0" y="42" width="380" height="288" fill="#111"/>
  <!-- Photo -->
  <rect x="16" y="56" width="76" height="100" rx="4" fill="#1a1a1a" stroke="#00D2BE" stroke-width="1.5"/>
  <path d="M19,59 h8 v8 h-8 z M65,59 h8 v8 h-8 z M19,149 h8 v8 h-8 z M65,149 h8 v8 h-8 z" fill="none" stroke="#00D2BE" stroke-width="1.5"/>
  <text x="54" y="96" fill="#00D2BE" font-size="24" text-anchor="middle" font-weight="900" class="t">GR</text>
  <text x="54" y="130" fill="#00D2BE" font-size="32" text-anchor="middle" font-weight="900" class="t">63</text>
  <text x="54" y="149" fill="#444" font-size="9" text-anchor="middle" letter-spacing="2" class="m">CREW</text>
  <!-- Info -->
  <text x="105" y="70" fill="#00D2BE" font-size="9" letter-spacing="3" class="m">PADDOCK PASS — ALL AREAS</text>
  <text x="105" y="102" fill="#fff" font-size="28" font-weight="900" letter-spacing="1" class="t">MUTIADEV</text>
  <text x="105" y="122" fill="#555" font-size="9" letter-spacing="2" class="m">ROLE</text>
  <text x="105" y="138" fill="#00D2BE" font-size="13" font-weight="700" class="c">FULL-STACK DEVELOPER</text>
  <text x="105" y="158" fill="#555" font-size="9" letter-spacing="2" class="m">CHASSIS</text>
  <text x="105" y="174" fill="#ccc" font-size="13" font-weight="600" class="c">W15 — SILVER ARROW</text>
  <text x="105" y="194" fill="#555" font-size="9" letter-spacing="2" class="m">BASE</text>
  <text x="105" y="210" fill="#ccc" font-size="13" font-weight="600" class="c">LAMPUNG, INDONESIA</text>
  <!-- Access bar -->
  <line x1="0" y1="330" x2="380" y2="330" stroke="#1f1f1f" stroke-width="1"/>
  <rect x="14" y="340" width="54" height="22" rx="3" fill="#1a1a1a" stroke="#00D2BE" stroke-width="1"/>
  <text x="41" y="355" fill="#00D2BE" font-size="9" text-anchor="middle" font-weight="700" letter-spacing="1" class="m">GARAGE</text>
  <rect x="74" y="340" width="62" height="22" rx="3" fill="#1a1a1a" stroke="#00D2BE" stroke-width="1"/>
  <text x="105" y="355" fill="#00D2BE" font-size="9" text-anchor="middle" font-weight="700" letter-spacing="1" class="m">PIT LANE</text>
  <rect x="142" y="340" width="68" height="22" rx="3" fill="#00D2BE"/>
  <text x="176" y="355" fill="#0a0a0a" font-size="9" text-anchor="middle" font-weight="700" letter-spacing="1" class="m">PADDOCK</text>
  <rect x="216" y="340" width="52" height="22" rx="3" fill="#1a1a1a" stroke="#00D2BE" stroke-width="1"/>
  <text x="242" y="355" fill="#00D2BE" font-size="9" text-anchor="middle" font-weight="700" letter-spacing="1" class="m">MEDIA</text>
  <rect x="274" y="340" width="92" height="22" rx="3" fill="#1a1a1a" stroke="#00D2BE" stroke-width="1"/>
  <text x="320" y="355" fill="#00D2BE" font-size="9" text-anchor="middle" font-weight="700" letter-spacing="1" class="m">HOSPITALITY</text>
  <!-- Footer -->
  <rect x="0" y="365" width="380" height="36" fill="#0d0d0d"/>
  <line x1="0" y1="365" x2="380" y2="365" stroke="#1a1a1a" stroke-width="1"/>
  <!-- Dot & verified -->
  <circle cx="22" cy="383" r="3" fill="#00D2BE"/>
  <text x="31" y="387" fill="#00D2BE" font-size="10" letter-spacing="2" class="m">VERIFIED</text>
  <!-- Barcode -->
  <g fill="#00D2BE" opacity="0.7">
    <rect x="148" y="373" width="2" height="18"/>
    <rect x="152" y="367" width="2" height="24"/>
    <rect x="156" y="377" width="2" height="14"/>
    <rect x="160" y="369" width="2" height="22"/>
    <rect x="164" y="373" width="2" height="18"/>
    <rect x="168" y="365" width="2" height="26"/>
    <rect x="172" y="379" width="2" height="12"/>
    <rect x="176" y="371" width="2" height="20"/>
    <rect x="180" y="367" width="2" height="24"/>
    <rect x="184" y="375" width="2" height="16"/>
    <rect x="188" y="369" width="2" height="22"/>
    <rect x="192" y="373" width="2" height="18"/>
    <rect x="196" y="365" width="2" height="26"/>
    <rect x="200" y="377" width="2" height="14"/>
    <rect x="204" y="371" width="2" height="20"/>
    <rect x="208" y="375" width="2" height="16"/>
    <rect x="212" y="367" width="2" height="24"/>
    <rect x="216" y="373" width="2" height="18"/>
  </g>
  <!-- Code -->
  <text x="262" y="387" fill="#333" font-size="9" class="m">MUT-2025-GR63</text>
  <!-- Watermark -->
  <text x="372" y="460" fill="rgba(0,210,190,0.05)" font-size="56" font-weight="900" text-anchor="end" class="t">GR63</text>
</svg>
